<svg xmlns="http://www.w3.org/2000/svg" xmlns:xlink="http://www.w3.org/1999/xlink" width="30.377" height="30.237" viewBox="0 0 30.377 30.237">
  <defs>
    <clipPath id="clip-path">
      <rect id="Rectangle_1762" data-name="Rectangle 1762" width="30.377" height="30.237" fill="none"/>
    </clipPath>
  </defs>
  <g id="brand" transform="translate(0 0)">
    <g id="Group_980" data-name="Group 980" transform="translate(0 0)" clip-path="url(#clip-path)">
      <path id="Path_238" data-name="Path 238" d="M12.974,30.237a.813.813,0,0,1-.568-.231L.247,18.2a.816.816,0,0,1-.01-1.161L16.051,1.154a.816.816,0,0,1,.494-.236L25.4,0a.82.82,0,0,1,.659.234L30.137,4.3a.815.815,0,0,1,.239.625l-.492,8.517a.817.817,0,0,1-.239.531L13.55,30a.815.815,0,0,1-.576.238M1.977,17.6,12.968,28.277,28.273,13.038l.453-7.84L25.183,1.667,17,2.511Z" transform="translate(0 0)" fill="#fff"/>
      <path id="Path_239" data-name="Path 239" d="M19.838,31.572h0a.814.814,0,0,1-.581-.247l-4.709-4.845a.816.816,0,0,1,.011-1.148l9.277-9.207a.815.815,0,0,1,1.14-.009l4.78,4.6a.816.816,0,0,1,.014,1.161L20.419,31.33a.817.817,0,0,1-.581.242m-3.56-5.651,3.566,3.67,8.181-8.27-3.609-3.476Z" transform="translate(-7.285 -8.086)" fill="#fff"/>
      <path id="Path_240" data-name="Path 240" d="M45.972,13.186a2.821,2.821,0,1,1,2.821-2.821,2.825,2.825,0,0,1-2.821,2.821m0-4.011a1.19,1.19,0,1,0,1.19,1.19,1.191,1.191,0,0,0-1.19-1.19" transform="translate(-21.962 -3.839)" fill="#fff"/>
    </g>
  </g>
</svg>
