<svg xmlns="http://www.w3.org/2000/svg" width="23.861" height="23.709" viewBox="0 0 23.861 23.709">
  <path id="calender" d="M318.176,905.618V904.8a.9.9,0,1,0-1.8,0v.373a7.109,7.109,0,0,0-.8-.048h-9.538a7.121,7.121,0,0,0-.765.042V904.8a.9.9,0,0,0-1.8,0v.809a7.167,7.167,0,0,0-4.594,6.678v8.159a7.169,7.169,0,0,0,7.162,7.162h5.673a11.039,11.039,0,0,0,11.026-11.027v-4.294A7.167,7.167,0,0,0,318.176,905.618Zm-17.5,14.823v-8.159a5.365,5.365,0,0,1,5.359-5.359h9.538a5.365,5.365,0,0,1,5.359,5.359v3.5a1.357,1.357,0,0,1-1.312,1.424h-3.3a3.937,3.937,0,0,0-2.982,1.141,4.231,4.231,0,0,0-1.068,2.908v2.461a2.323,2.323,0,0,1-1.612,2.086h-4.619A5.365,5.365,0,0,1,300.676,920.442Zm12.871,5.174a3.668,3.668,0,0,0,.522-1.9v-2.5a2.514,2.514,0,0,1,.581-1.637,2.23,2.23,0,0,1,1.667-.572l3.353,0a3.4,3.4,0,0,0,.983-.212A9.245,9.245,0,0,1,313.547,925.616Z" transform="translate(-298.874 -903.895)" fill="#fff"/>
</svg>
