<svg xmlns="http://www.w3.org/2000/svg" width="14.309" height="12.432" viewBox="0 0 14.309 12.432">
  <path id="chat" d="M165.772,17.82a.639.639,0,0,1-.452-1.092,16.708,16.708,0,0,0,1.517-1.818,4.752,4.752,0,0,1-.927-.541,4.691,4.691,0,0,1-1.819-3.965c0-1.833,1.116-3.267,3.227-4.147a12.589,12.589,0,0,1,4.448-.87,8.35,8.35,0,0,1,4.012,1.174,4.963,4.963,0,0,1,2.621,4.365c0,1.8-1.16,3.238-3.354,4.17a11.792,11.792,0,0,1-3.8.9,4.15,4.15,0,0,1-1.086-.143,6.15,6.15,0,0,1-2.477,1.478,11.605,11.605,0,0,1-1.8.485A.641.641,0,0,1,165.772,17.82Zm5.994-11.153a11.2,11.2,0,0,0-3.956.771,4.786,4.786,0,0,0-1.759,1.169,2.6,2.6,0,0,0-.681,1.8,3.457,3.457,0,0,0,1.308,2.941,3.379,3.379,0,0,0,1.285.6.639.639,0,0,1,.427.985c-.023.034-.319.476-.749,1.044a3.949,3.949,0,0,0,1.77-1.232.629.629,0,0,1,.812-.22,2.658,2.658,0,0,0,1.023.192,10.691,10.691,0,0,0,3.3-.794c1.709-.726,2.575-1.733,2.575-2.993a3.7,3.7,0,0,0-2-3.271A7.087,7.087,0,0,0,171.766,6.667Z" transform="translate(-164.09 -5.388)" fill="#bcbcbc"/>
</svg>
