<svg xmlns="http://www.w3.org/2000/svg" width="8.502" height="22.744" viewBox="0 0 8.502 22.744">
  <g id="clip" transform="translate(283.898 1062.317)">
    <path id="Path_117" data-name="Path 117" d="M-279.568-1039.573a4.366,4.366,0,0,1-3.32-1.216,3.983,3.983,0,0,1-1.009-2.728v-16.163a2.892,2.892,0,0,1,3.156-2.637,2.787,2.787,0,0,1,3.123,2.545v12.2a2.238,2.238,0,0,1-.595,1.487,1.943,1.943,0,0,1-1.435.546,1.952,1.952,0,0,1-1.8-.973,2.2,2.2,0,0,1-.272-.949v-5.891h1.028v5.868a.931.931,0,0,0,1.042.917.942.942,0,0,0,1-1.007v-12.174c-.01-.177-.153-1.546-2.1-1.546s-2.112,1.436-2.128,1.65v16.164a2.977,2.977,0,0,0,.737,1.989,3.4,3.4,0,0,0,2.564.886,3.158,3.158,0,0,0,2.439-.871,3.215,3.215,0,0,0,.7-2.216l0-.049v-12.749h1.028v12.728a4.208,4.208,0,0,1-.958,2.97A4.123,4.123,0,0,1-279.568-1039.573Z" transform="translate(0)" fill="#fff"/>
  </g>
</svg>
