<svg xmlns="http://www.w3.org/2000/svg" width="26.326" height="26.327" viewBox="0 0 26.326 26.327">
  <g id="content" transform="translate(-128.035 -1606.75)">
    <path id="Rectangle_1589" data-name="Rectangle 1589" d="M5.406-1.824H17.274A7.224,7.224,0,0,1,24.5,5.406V17.274A7.224,7.224,0,0,1,17.274,24.5H5.406a7.224,7.224,0,0,1-7.229-7.229V5.406A7.224,7.224,0,0,1,5.406-1.824ZM17.274,23.04a5.767,5.767,0,0,0,5.767-5.767V5.406A5.767,5.767,0,0,0,17.274-.361H5.406A5.767,5.767,0,0,0-.361,5.406V17.274A5.767,5.767,0,0,0,5.406,23.04Z" transform="translate(129.858 1608.574)" fill="#fff"/>
    <path id="Path_128" data-name="Path 128" d="M153.344,1641.52c-.06-.066-6.038-6.57-6.9-7.437a.509.509,0,0,0-.3-.18.4.4,0,0,0-.218.125l-.029.04-.021.015-.548.548-.016.014a2.629,2.629,0,0,1-2.116.792,2.249,2.249,0,0,1-1.474-.917c-.965-1.157-2.558-3-3.048-3.413a.815.815,0,0,0-.779-.242.954.954,0,0,0-.352.186l-7.961,9.553-1.124-.936,8.011-9.612.02-.021a2.358,2.358,0,0,1,.928-.553,2.277,2.277,0,0,1,2.2.5c.753.63,3,3.319,3.255,3.624l.037.045.014.025a.791.791,0,0,0,.487.31,1.362,1.362,0,0,0,.919-.424l.5-.5a1.861,1.861,0,0,1,1.238-.625,1.828,1.828,0,0,1,1.414.606c.889.889,6.7,7.213,6.947,7.481Z" transform="translate(-0.253 -13.555)" fill="#fff"/>
    <path id="Ellipse_67" data-name="Ellipse 67" d="M1.345-1.824A3.169,3.169,0,1,1-1.824,1.345,3.172,3.172,0,0,1,1.345-1.824Zm0,4.875A1.706,1.706,0,1,0-.361,1.345,1.708,1.708,0,0,0,1.345,3.052Z" transform="translate(146.556 1612.596)" fill="#fff"/>
  </g>
</svg>
