<svg xmlns="http://www.w3.org/2000/svg" xmlns:xlink="http://www.w3.org/1999/xlink" width="31.327" height="25.342" viewBox="0 0 31.327 25.342">
  <defs>
    <clipPath id="clip-path">
      <path id="Path_236" data-name="Path 236" d="M25.028,16.089,29.221,12.8l8.814,13.654L11.4,26.466l8.518-13.639,4.072,3.261a.906.906,0,0,0,.539.234.756.756,0,0,0,.5-.234m5.3-4.167,8.136-6.405,0,18.965Zm-19.6-6.429,8.111,6.437-8.111,12.92ZM20.7,11.615l3.884-6.176,3.829,6.148-3.912,3.1ZM9.706,3.373A.776.776,0,0,0,9.318,4V27.033a.759.759,0,0,0,.82.82l28.954.012a.782.782,0,0,0,.509-.175.768.768,0,0,0,.24-.615s.036-22.824.036-22.955a.735.735,0,0,0-.37-.692.722.722,0,0,0-.74.052l-9.191,7.239-4.4-7.02a.7.7,0,0,0-.592-.35.69.69,0,0,0-.583.3l-4.425,7.088L10.494,3.469a.748.748,0,0,0-.464-.171.769.769,0,0,0-.324.075" transform="translate(-9.318 -3.298)" fill="none"/>
    </clipPath>
  </defs>
  <g id="creator" transform="translate(-8.935 -2.907)">
    <g id="Group_972" data-name="Group 972" transform="translate(9.318 3.298)">
      <g id="Group_979" data-name="Group 979">
        <path id="Path_235" data-name="Path 235" d="M29.577,10.718,25.178,3.7a.7.7,0,0,0-.592-.35.69.69,0,0,0-.583.3l-4.425,7.089L10.494,3.469a.726.726,0,0,0-.788-.1A.777.777,0,0,0,9.318,4V27.034a.759.759,0,0,0,.82.82l28.954.012a.781.781,0,0,0,.509-.176.768.768,0,0,0,.241-.614s.036-22.824.036-22.956a.735.735,0,0,0-.37-.692.722.722,0,0,0-.74.052Zm-5-5.278,3.829,6.148L24.5,14.69l-3.8-3.074Zm-13.857.053,8.111,6.437-8.111,12.92ZM11.4,26.467l8.517-13.639,4.072,3.262a.907.907,0,0,0,.54.233.759.759,0,0,0,.5-.233l4.192-3.284,8.814,13.654Zm27.061-1.985-8.131-12.56,8.137-6.406Z" transform="translate(-9.318 -3.298)" fill="#fff"/>
      </g>
    </g>
    <g id="Group_976" data-name="Group 976" transform="translate(9.318 3.298)">
      <g id="Group_978" data-name="Group 978">
        <path id="Path_237" data-name="Path 237" d="M29.577,10.718,25.178,3.7a.7.7,0,0,0-.592-.35.69.69,0,0,0-.583.3l-4.425,7.089L10.494,3.469a.726.726,0,0,0-.788-.1A.777.777,0,0,0,9.318,4V27.034a.759.759,0,0,0,.82.82l28.954.012a.781.781,0,0,0,.509-.176.768.768,0,0,0,.241-.614s.036-22.824.036-22.956a.735.735,0,0,0-.37-.692.722.722,0,0,0-.74.052Zm-5-5.278,3.829,6.148L24.5,14.69l-3.8-3.074Zm-13.857.053,8.111,6.437-8.111,12.92ZM11.4,26.467l8.517-13.639,4.072,3.262a.907.907,0,0,0,.54.233.759.759,0,0,0,.5-.233l4.192-3.284,8.814,13.654Zm27.061-1.985-8.131-12.56,8.137-6.406Z" transform="translate(-9.318 -3.298)" fill="none" stroke="#fff" stroke-miterlimit="10" stroke-width="0.767"/>
      </g>
    </g>
  </g>
</svg>
