<svg xmlns="http://www.w3.org/2000/svg" xmlns:xlink="http://www.w3.org/1999/xlink" width="18" height="13" viewBox="0 0 18 13">
  <defs>
    <clipPath id="clip-path">
      <rect id="Rectangle_1727" data-name="Rectangle 1727" width="18" height="13" transform="translate(-0.311 0.074)" fill="none"/>
    </clipPath>
  </defs>
  <g id="envelope" transform="translate(0.311 -0.074)">
    <g id="Group_949" data-name="Group 949" transform="translate(0)" clip-path="url(#clip-path)">
      <path id="Path_225" data-name="Path 225" d="M15.619,13.074H2.07A2.072,2.072,0,0,1,0,11V2.07A2.072,2.072,0,0,1,2.07,0H15.619a2.072,2.072,0,0,1,2.07,2.07V11a2.072,2.072,0,0,1-2.07,2.07M2.07,1.154a.917.917,0,0,0-.916.916V11a.917.917,0,0,0,.916.916H15.619A.917.917,0,0,0,16.535,11V2.07a.917.917,0,0,0-.916-.916Z" transform="translate(0)" fill="#fff"/>
      <path id="Path_226" data-name="Path 226" d="M10.1,10.328a.577.577,0,0,1-.371-.135L2.035,3.734l.742-.883,7.315,6.143,7.127-6.138.753.874-7.5,6.458a.576.576,0,0,1-.376.14" transform="translate(-1.252 -1.755)" fill="#fff"/>
    </g>
  </g>
</svg>
