<svg id="eye" xmlns="http://www.w3.org/2000/svg" xmlns:xlink="http://www.w3.org/1999/xlink" width="17.34" height="14.584" viewBox="0 0 17.34 14.584">
  <defs>
    <clipPath id="clip-path">
      <rect id="Rectangle_1736" data-name="Rectangle 1736" width="17.34" height="14.584" fill="none"/>
    </clipPath>
  </defs>
  <g id="Group_959" data-name="Group 959" clip-path="url(#clip-path)">
    <path id="Path_231" data-name="Path 231" d="M1.785,0,.82,1l2.27,2.263A10.33,10.33,0,0,0,0,7.089c4.709,8.722,12.139,5.194,12.139,5.194l2.3,2.3.965-.965ZM6.2,10.131A3.768,3.768,0,0,1,5.171,5.338l1.19,1.186a2.645,2.645,0,0,0,.768,2.382,2.5,2.5,0,0,0,2.125.5l1.216,1.212A4.058,4.058,0,0,1,6.2,10.131" fill="#fff"/>
    <path id="Path_232" data-name="Path 232" d="M150.11,29.946a8.2,8.2,0,0,1,8.98,1.707,11.035,11.035,0,0,1,2.789,3.638A12.129,12.129,0,0,1,159.09,39l-2.227-2.227a3.84,3.84,0,0,0-.869-4.344,4.193,4.193,0,0,0-4.252-.814Z" transform="translate(-144.54 -28.201)" fill="#fff"/>
    <path id="Path_233" data-name="Path 233" d="M229.11,127l2.546,2.579a2.3,2.3,0,0,0-.728-1.911A3.622,3.622,0,0,0,229.11,127" transform="translate(-220.608 -122.287)" fill="#fff"/>
  </g>
</svg>
