<svg xmlns="http://www.w3.org/2000/svg" width="21.997" height="18.91" viewBox="0 0 21.997 18.91">
  <path id="favorites" d="M6.375,5.694a6.1,6.1,0,0,1,4.583,2.2,7.42,7.42,0,0,1,5.379-2.125,5.283,5.283,0,0,1,4.507,2.317,6.6,6.6,0,0,1,1,2.227c.126.454.679,3-1.693,6.158-2.351,3.134-8.392,7.75-8.648,7.945a.94.94,0,0,1-1.155-.012c-.285-.227-7-5.581-8.593-7.975-1.3-1.951-2.8-4.9-.766-7.941A5.976,5.976,0,0,1,5.53,5.769,4.472,4.472,0,0,1,6.375,5.694Zm4.561,4.644a.941.941,0,0,1-.776-.419A4.812,4.812,0,0,0,6.375,7.575a2.555,2.555,0,0,0-.5.043.692.692,0,0,1-.225.028A4.059,4.059,0,0,0,2.558,9.526c-1.1,1.649-.87,3.4.766,5.855,1.084,1.626,5.437,5.311,7.624,7.084,1.571-1.235,5.913-4.74,7.7-7.127,1.9-2.529,1.434-4.359,1.391-4.509a.538.538,0,0,1-.028-.107,4.8,4.8,0,0,0-.745-1.609,3.427,3.427,0,0,0-2.932-1.467,5.328,5.328,0,0,0-4.589,2.223.928.928,0,0,1-.775.469Z" transform="translate(0.002 -5.694)" fill="#fff"/>
</svg>
