<svg xmlns="http://www.w3.org/2000/svg" width="14.959" height="12.859" viewBox="0 0 14.959 12.859">
  <path id="heart" d="M4.335,5.694A4.151,4.151,0,0,1,7.452,7.188,5.046,5.046,0,0,1,11.11,5.743a3.593,3.593,0,0,1,3.065,1.576,4.486,4.486,0,0,1,.683,1.514,4.946,4.946,0,0,1-1.151,4.188,39.8,39.8,0,0,1-5.881,5.4.639.639,0,0,1-.785-.008c-.194-.154-4.758-3.8-5.844-5.423-.885-1.327-1.9-3.33-.521-5.4A4.064,4.064,0,0,1,3.76,5.745,3.041,3.041,0,0,1,4.335,5.694Zm3.1,3.158a.64.64,0,0,1-.528-.285A3.273,3.273,0,0,0,4.335,6.973,1.738,1.738,0,0,0,4,7a.471.471,0,0,1-.153.019A2.76,2.76,0,0,0,1.739,8.3c-.748,1.121-.592,2.312.521,3.982A38.118,38.118,0,0,0,7.445,17.1a35.752,35.752,0,0,0,5.239-4.846,3.706,3.706,0,0,0,.946-3.066.366.366,0,0,1-.019-.073A3.266,3.266,0,0,0,13.1,8.019a2.331,2.331,0,0,0-1.994-1A3.624,3.624,0,0,0,7.989,8.533a.631.631,0,0,1-.527.319Z" transform="translate(0.002 -5.694)" fill="#bcbcbc"/>
</svg>
