<svg xmlns="http://www.w3.org/2000/svg" width="21.536" height="24.071" viewBox="0 0 21.536 24.071">
  <g id="home" transform="translate(0 0)">
    <path id="Path_60" data-name="Path 60" d="M64.5,928.941H57.586a.954.954,0,0,1-.954-.954v-6.521H52.825v6.521a.954.954,0,0,1-.954.954H44.953a.953.953,0,0,1-.954-.948l-.076-13.313a.952.952,0,0,1,.323-.721l10.048-8.85a.955.955,0,0,1,1.275.012l9.58,8.774a.949.949,0,0,1,.31.7v13.39A.954.954,0,0,1,64.5,928.941Zm-5.965-1.908h5.011V915.018l-8.64-7.912-9.079,8,.069,11.931h5.016v-6.521a.954.954,0,0,1,.954-.954h5.715a.954.954,0,0,1,.954.954Z" transform="translate(-43.923 -904.87)" fill="#fff"/>
  </g>
</svg>
