<svg id="instagram" xmlns="http://www.w3.org/2000/svg" width="22.293" height="21.974" viewBox="0 0 22.293 21.974">
  <path id="Path_174" data-name="Path 174" d="M16.34,21.974H6.656a6.312,6.312,0,0,1-6.3-6.3V6.3A6.312,6.312,0,0,1,6.656,0H16.34a6.312,6.312,0,0,1,6.3,6.3v9.364a6.312,6.312,0,0,1-6.3,6.3M6.656,1.785A4.525,4.525,0,0,0,2.137,6.3v9.364a4.525,4.525,0,0,0,4.519,4.52H16.34a4.525,4.525,0,0,0,4.519-4.52V6.3a4.525,4.525,0,0,0-4.519-4.52Z" transform="translate(-0.352)" fill="#fff"/>
  <path id="Path_175" data-name="Path 175" d="M24.856,30.541a5.627,5.627,0,1,1,5.627-5.627,5.633,5.633,0,0,1-5.627,5.627m0-9.469A3.842,3.842,0,1,0,28.7,24.914a3.847,3.847,0,0,0-3.841-3.842" transform="translate(-13.705 -13.643)" fill="#fff"/>
  <path id="Path_176" data-name="Path 176" d="M55.244,12.31a1.433,1.433,0,1,0,1.433,1.433,1.435,1.435,0,0,0-1.433-1.433" transform="translate(-38.167 -8.708)" fill="#fff"/>
</svg>
