<svg xmlns="http://www.w3.org/2000/svg" xmlns:xlink="http://www.w3.org/1999/xlink" width="134.409" height="36.42" viewBox="0 0 134.409 36.42">
  <defs>
    <linearGradient id="linear-gradient" y1="0.5" x2="1" y2="0.5" gradientUnits="objectBoundingBox">
      <stop offset="0" stop-color="#9969a3"/>
      <stop offset="1" stop-color="#73cbf2"/>
    </linearGradient>
    <clipPath id="clip-path">
      <path id="Path_15" data-name="Path 15" d="M905.722,44.353l7.056-4.423a.706.706,0,0,0,.352-.595.694.694,0,0,0-.3-.587L905.706,34.3s7.188-8.987,7.3-9.13a.73.73,0,0,0,.1-.793.78.78,0,0,0-.63-.39H889.322a.764.764,0,0,0-.825.825s-.012,28.781-.012,29.105a.787.787,0,0,0,.176.512.774.774,0,0,0,.618.242l23.076.036a.739.739,0,0,0,.7-.372A.727.727,0,0,0,913,53.59Zm5.307-5.023-6.18,3.848-3.118-3.932,3.09-3.821ZM910.976,25.4l-6.47,8.153L891.518,25.4Zm-21.083.675,13.71,8.562-3.279,4.093a.911.911,0,0,0-.234.543.76.76,0,0,0,.234.506l3.3,4.214L889.9,52.854Zm1.995,27.2L904.513,45.1l6.438,8.179Z" transform="translate(-888.486 -23.987)" fill="url(#linear-gradient)"/>
    </clipPath>
  </defs>
  <g id="logo" transform="translate(-888.486 -18.608)">
    <text id="embassy" transform="translate(922.895 44.608)" fill="#fff" font-size="26" font-family="SofiaPro-SemiBold, Sofia Pro" font-weight="600" letter-spacing="-0.04em"><tspan x="0" y="0">embassy</tspan></text>
    <g id="Group_91" data-name="Group 91" transform="translate(888.486 24.309)">
      <path id="Path_14" data-name="Path 14" d="M905.722,44.353l7.056-4.423a.706.706,0,0,0,.352-.595.694.694,0,0,0-.3-.587L905.706,34.3s7.188-8.987,7.3-9.13a.73.73,0,0,0,.1-.793.78.78,0,0,0-.63-.39H889.322a.764.764,0,0,0-.825.825s-.012,28.781-.012,29.105a.787.787,0,0,0,.176.512.774.774,0,0,0,.618.242l23.076.036a.739.739,0,0,0,.7-.372A.727.727,0,0,0,913,53.59Zm5.307-5.023-6.18,3.848-3.118-3.932,3.09-3.821ZM910.976,25.4l-6.47,8.153L891.518,25.4Zm-21.083.675,13.71,8.562-3.279,4.093a.911.911,0,0,0-.234.543.76.76,0,0,0,.234.506l3.3,4.214L889.9,52.854Zm1.995,27.2L904.513,45.1l6.438,8.179Z" transform="translate(-888.486 -23.987)" fill="url(#linear-gradient)"/>
      <g id="Group_90" data-name="Group 90" clip-path="url(#clip-path)">
        <rect id="Rectangle_30" data-name="Rectangle 30" width="28.395" height="39.443" transform="translate(-2.107 -4.883)" fill="url(#linear-gradient)"/>
      </g>
    </g>
  </g>
</svg>
