<svg xmlns="http://www.w3.org/2000/svg" width="26.348" height="24.114" viewBox="0 0 26.348 24.114">
  <g id="logout" transform="translate(-201.002 -233)">
    <path id="Path_74" data-name="Path 74" d="M492.454,233H481.4a3.126,3.126,0,0,0-3.092,3.153v5.877h1.957v-5.877a1.152,1.152,0,0,1,1.134-1.167h11.054a1.152,1.152,0,0,1,1.134,1.167v17.809a1.152,1.152,0,0,1-1.134,1.167H481.4a1.152,1.152,0,0,1-1.134-1.167V247.22h-1.957v6.741a3.126,3.126,0,0,0,3.092,3.153h11.054a3.126,3.126,0,0,0,3.092-3.153V236.153A3.126,3.126,0,0,0,492.454,233Z" transform="translate(-268.196 0)" fill="#fff"/>
    <path id="Path_75" data-name="Path 75" d="M204.495,379.8h13.961a1.023,1.023,0,0,0,0-2.045H204.729l4.036-4.142a1.108,1.108,0,0,0-.006-1.545,1.067,1.067,0,0,0-.764-.319h0a1.067,1.067,0,0,0-.766.325l-5.911,6.068a1.108,1.108,0,0,0,.006,1.545l5.958,6.02a1.067,1.067,0,0,0,.764.319h0a1.067,1.067,0,0,0,.766-.325,1.108,1.108,0,0,0-.006-1.545Z" transform="translate(0 -134.189)" fill="#fff"/>
  </g>
</svg>
