<svg xmlns="http://www.w3.org/2000/svg" width="26.084" height="26.207" viewBox="0 0 26.084 26.207">
  <path id="messenger" d="M426.2,1155.4a.671.671,0,0,0,0-.075.939.939,0,0,0-.058-.236.707.707,0,0,0-.135-.2l0,0,0,0s-.012-.006-.017-.011a.668.668,0,0,0-.189-.122.528.528,0,0,0-.065-.024.691.691,0,0,0-.18-.032c-.021,0-.041,0-.061,0a.683.683,0,0,0-.236.049l-24.708,10.244a.691.691,0,0,0-.053,1.252l9.558,4.956,4.48,9.313a.692.692,0,0,0,.623.392h.018a.69.69,0,0,0,.619-.424l10.365-24.828,0-.008c.006-.014.006-.028.011-.042A.669.669,0,0,0,426.2,1155.4Zm-3.535,1.908-12.232,12.526-7.99-4.143Zm-7.559,21.211-3.7-7.7,12.083-12.375Z" transform="translate(-400.115 -1154.688)" fill="#fff"/>
</svg>
