<svg xmlns="http://www.w3.org/2000/svg" width="21.588" height="25.716" viewBox="0 0 21.588 25.716">
  <path id="notification" d="M914.717,155.832c-.054-.067-.127-.154-.214-.257-.7-.828-2.55-3.027-2.55-5.314v-4.513c.029-.485.037-3.832-4.951-6.458v-1.512a2.29,2.29,0,0,0-.619-1.591,2.721,2.721,0,0,0-2.054-.758,2.793,2.793,0,0,0-2.109.757,2.042,2.042,0,0,0-.564,1.4V139.3c-1.3.735-4.987,3.135-4.987,6.661v4.5l.005.086a5.081,5.081,0,0,1-1.633,3.824c-1.317,1.317-1.743,2.136-1.469,2.826a1.069,1.069,0,0,0,.98.662h6.066c.342,1.027,1.364,3.292,3.727,3.292s3.408-2.271,3.76-3.292h5.86l.053-.007a1.228,1.228,0,0,0,.988-.72A1.248,1.248,0,0,0,914.717,155.832Zm-10.373,3.747a2.393,2.393,0,0,1-1.994-1.607h4.012A2.436,2.436,0,0,1,904.344,159.579Zm-8.937-3.291a9.885,9.885,0,0,1,.741-.814,6.7,6.7,0,0,0,2.088-5.052v-4.464c0-3.21,4.5-5.467,4.548-5.489l.438-.216v-2.684c0-.172.12-.572,1.107-.572.961,0,1.106.458,1.107.748v2.515l.439.215c4.678,2.288,4.524,5.058,4.516,5.164l0,4.622c0,2.6,1.753,4.915,2.672,6.027Z" transform="translate(-893.492 -135.429)" fill="#fff"/>
</svg>
