<svg xmlns="http://www.w3.org/2000/svg" width="23.861" height="25.386" viewBox="0 0 23.861 25.386">
  <g id="performance" transform="translate(0 0)">
    <g id="Group_165" data-name="Group 165" transform="translate(4.98 2.946)">
      <g id="Group_158" data-name="Group 158" transform="translate(0 9.204)">
        <g id="Group_157" data-name="Group 157">
          <path id="Path_62" data-name="Path 62" d="M649.366,1802.858a.736.736,0,0,1-.737-.736v-6.894a.737.737,0,1,1,1.473,0v6.894A.736.736,0,0,1,649.366,1802.858Z" transform="translate(-648.404 -1794.266)" fill="#fff"/>
          <path id="Path_63" data-name="Path 63" d="M649.09,1802.807a.962.962,0,0,1-.961-.961v-6.895a.961.961,0,0,1,1.923,0v6.895A.962.962,0,0,1,649.09,1802.807Zm0-8.367a.513.513,0,0,0-.512.512v6.895a.512.512,0,0,0,1.024,0v-6.895A.513.513,0,0,0,649.09,1794.44Z" transform="translate(-648.129 -1793.991)" fill="#fff"/>
        </g>
      </g>
      <g id="Group_160" data-name="Group 160" transform="translate(4.826 4.869)">
        <g id="Group_159" data-name="Group 159">
          <path id="Path_64" data-name="Path 64" d="M660.1,1797.548a.736.736,0,0,1-.737-.736v-11.229a.737.737,0,0,1,1.473,0v11.229A.736.736,0,0,1,660.1,1797.548Z" transform="translate(-659.142 -1784.621)" fill="#fff"/>
          <path id="Path_65" data-name="Path 65" d="M659.828,1797.5a.962.962,0,0,1-.961-.961v-11.23a.961.961,0,0,1,1.923,0v11.23A.962.962,0,0,1,659.828,1797.5Zm0-12.7a.512.512,0,0,0-.512.511v11.23a.512.512,0,0,0,1.024,0v-11.23A.512.512,0,0,0,659.828,1784.8Z" transform="translate(-658.867 -1784.346)" fill="#fff"/>
        </g>
      </g>
      <g id="Group_162" data-name="Group 162" transform="translate(9.17 5.817)">
        <g id="Group_161" data-name="Group 161">
          <path id="Path_66" data-name="Path 66" d="M669.769,1798.709a.736.736,0,0,1-.737-.736v-10.281a.737.737,0,1,1,1.473,0v10.281A.736.736,0,0,1,669.769,1798.709Z" transform="translate(-668.807 -1786.73)" fill="#fff"/>
          <path id="Path_67" data-name="Path 67" d="M669.493,1798.659a.962.962,0,0,1-.961-.961v-10.281a.961.961,0,0,1,1.923,0V1797.7A.962.962,0,0,1,669.493,1798.659Zm0-11.754a.512.512,0,0,0-.512.512V1797.7a.512.512,0,0,0,1.024,0v-10.281A.512.512,0,0,0,669.493,1786.9Z" transform="translate(-668.532 -1786.455)" fill="#fff"/>
        </g>
      </g>
      <g id="Group_164" data-name="Group 164" transform="translate(13.996 0)">
        <g id="Group_163" data-name="Group 163">
          <path id="Path_68" data-name="Path 68" d="M680.507,1791.584a.736.736,0,0,1-.737-.736v-16.1a.737.737,0,0,1,1.473,0v16.1A.736.736,0,0,1,680.507,1791.584Z" transform="translate(-679.545 -1773.788)" fill="#fff"/>
          <path id="Path_69" data-name="Path 69" d="M680.231,1791.533a.962.962,0,0,1-.961-.961v-16.1a.961.961,0,0,1,1.923,0v16.1A.962.962,0,0,1,680.231,1791.533Zm0-17.57a.512.512,0,0,0-.512.511v16.1a.512.512,0,0,0,1.024,0v-16.1A.512.512,0,0,0,680.231,1773.963Z" transform="translate(-679.27 -1773.513)" fill="#fff"/>
        </g>
      </g>
    </g>
    <g id="Group_167" data-name="Group 167" transform="translate(0 0)">
      <g id="Group_166" data-name="Group 166" transform="translate(0 0)">
        <path id="Path_70" data-name="Path 70" d="M660.223,1792.394H642.575a5.031,5.031,0,0,1-5.026-5.026v-19.175a.737.737,0,1,1,1.473,0v19.175a3.557,3.557,0,0,0,3.553,3.553h17.648a.736.736,0,1,1,0,1.473Z" transform="translate(-637.324 -1767.232)" fill="#fff"/>
        <path id="Path_71" data-name="Path 71" d="M659.948,1792.344H642.3a5.257,5.257,0,0,1-5.251-5.25v-19.175a.961.961,0,0,1,1.923,0v19.175a3.332,3.332,0,0,0,3.328,3.328h17.648a.961.961,0,1,1,0,1.922Zm-21.938-24.937a.513.513,0,0,0-.512.512v19.175a4.806,4.806,0,0,0,4.8,4.8h17.648a.512.512,0,1,0,0-1.023H642.3a3.782,3.782,0,0,1-3.778-3.777v-19.175A.513.513,0,0,0,638.01,1767.406Z" transform="translate(-637.049 -1766.957)" fill="#fff"/>
      </g>
    </g>
  </g>
</svg>
