<svg id="profile-white" xmlns="http://www.w3.org/2000/svg" xmlns:xlink="http://www.w3.org/1999/xlink" width="28.997" height="28.997" viewBox="0 0 28.997 28.997">
  <defs>
    <clipPath id="clip-path">
      <rect id="Rectangle_1786" data-name="Rectangle 1786" width="28.997" height="28.997" fill="none"/>
    </clipPath>
  </defs>
  <g id="Group_1029" data-name="Group 1029" clip-path="url(#clip-path)">
    <path id="Path_255" data-name="Path 255" d="M14.5,29A14.5,14.5,0,1,1,29,14.5,14.515,14.515,0,0,1,14.5,29m0-27.574A13.075,13.075,0,1,0,27.574,14.5,13.09,13.09,0,0,0,14.5,1.423" fill="#fff"/>
    <path id="Path_256" data-name="Path 256" d="M21.032,49.145a12.326,12.326,0,0,1-9.376-4.581l-.245-.329.161-.377c1.766-4.12,4.966-4.167,5.1-4.167h8.539c3.235,0,4.911,2.777,5.345,4.245l.1.344-.216.287a12.449,12.449,0,0,1-9.411,4.577m-7.972-5.118a11.018,11.018,0,0,0,7.972,3.695A11.141,11.141,0,0,0,29.066,44a4.292,4.292,0,0,0-3.853-2.88H16.674c-.088,0-2.22.077-3.613,2.912" transform="translate(-6.552 -22.792)" fill="#fff"/>
    <path id="Path_257" data-name="Path 257" d="M26.614,23.564a5.515,5.515,0,1,1,5.515-5.515,5.521,5.521,0,0,1-5.515,5.515m0-9.607a4.092,4.092,0,1,0,4.091,4.091,4.1,4.1,0,0,0-4.091-4.091" transform="translate(-12.115 -7.197)" fill="#fff"/>
  </g>
</svg>
