<svg xmlns="http://www.w3.org/2000/svg" width="26.347" height="26.347" viewBox="0 0 26.347 26.347">
  <g id="settings" transform="translate(1295.193 -421.361)">
    <path id="Path_76" data-name="Path 76" d="M-1282.019,447.708a13.174,13.174,0,0,1-1.6-.1.79.79,0,0,1-.669-.582c-.447-1.683-1.012-2.645-1.728-2.941s-1.783-.015-3.273.853a.791.791,0,0,1-.888-.063,13.273,13.273,0,0,1-2.186-2.186.791.791,0,0,1-.063-.888c.868-1.49,1.146-2.56.852-3.272s-1.257-1.281-2.94-1.728a.79.79,0,0,1-.581-.668,13.278,13.278,0,0,1-.1-1.6,13.28,13.28,0,0,1,.1-1.6.79.79,0,0,1,.581-.668c1.683-.447,2.644-1.012,2.94-1.728s.016-1.782-.852-3.272a.791.791,0,0,1,.063-.888,13.276,13.276,0,0,1,2.186-2.186.79.79,0,0,1,.888-.063c1.49.868,2.561,1.148,3.273.853s1.281-1.258,1.728-2.941a.79.79,0,0,1,.669-.582,13.185,13.185,0,0,1,1.6-.1,13.373,13.373,0,0,1,1.6.1.79.79,0,0,1,.669.582c.447,1.683,1.012,2.645,1.728,2.941s1.783.015,3.273-.853a.79.79,0,0,1,.887.063,13.267,13.267,0,0,1,2.186,2.186.79.79,0,0,1,.063.888c-.867,1.49-1.146,2.56-.852,3.272s1.257,1.281,2.94,1.728a.79.79,0,0,1,.581.669,13.279,13.279,0,0,1,.1,1.6,13.282,13.282,0,0,1-.1,1.6.79.79,0,0,1-.581.668c-1.682.447-2.644,1.012-2.94,1.728s-.015,1.782.852,3.272a.79.79,0,0,1-.062.888,13.277,13.277,0,0,1-2.186,2.186.79.79,0,0,1-.888.063c-1.491-.868-2.561-1.147-3.273-.853s-1.281,1.258-1.728,2.941a.79.79,0,0,1-.669.582A13.168,13.168,0,0,1-1282.019,447.708Zm-.891-1.617a10.92,10.92,0,0,0,1.781,0c.581-1.9,1.382-3,2.5-3.467s2.454-.246,4.188.678a11.683,11.683,0,0,0,1.189-1.19c-.922-1.733-1.137-3.073-.677-4.186s1.569-1.92,3.465-2.5c.024-.3.036-.6.036-.892s-.012-.589-.036-.892c-1.9-.581-3-1.383-3.465-2.5s-.246-2.453.677-4.186a11.679,11.679,0,0,0-1.189-1.189c-1.734.923-3.074,1.138-4.188.677s-1.92-1.57-2.5-3.467a10.953,10.953,0,0,0-1.781,0c-.581,1.9-1.382,3-2.5,3.467s-2.453.246-4.188-.677a11.69,11.69,0,0,0-1.189,1.189c.922,1.733,1.137,3.073.677,4.186s-1.569,1.92-3.465,2.5c-.024.3-.036.6-.036.892s.012.588.036.892c1.9.581,3,1.382,3.465,2.5s.246,2.453-.677,4.186a11.688,11.688,0,0,0,1.189,1.19c1.734-.923,3.074-1.138,4.188-.678S-1283.49,444.195-1282.91,446.092Zm13.18-10.052h0Zm-12.289,5.784a7.3,7.3,0,0,1-7.288-7.288,7.3,7.3,0,0,1,7.288-7.288,7.3,7.3,0,0,1,7.288,7.288A7.3,7.3,0,0,1-1282.019,441.823Zm0-13a5.714,5.714,0,0,0-5.708,5.708,5.714,5.714,0,0,0,5.708,5.708,5.714,5.714,0,0,0,5.708-5.708A5.714,5.714,0,0,0-1282.019,428.827Z" transform="translate(0 0)" fill="#fff"/>
  </g>
</svg>
