<svg id="Group_190" data-name="Group 190" xmlns="http://www.w3.org/2000/svg" width="24.887" height="25.002" viewBox="0 0 24.887 25.002">
  <g id="Group_188" data-name="Group 188" transform="translate(0 0)">
    <path id="Path_80" data-name="Path 80" d="M9773.95-2440.22a.658.658,0,0,1-.594-.374l-4.272-8.884-9.118-4.728a.66.66,0,0,1-.354-.613.657.657,0,0,1,.405-.581l23.569-9.772a.66.66,0,0,1,.719.144.661.661,0,0,1,.142.719l-9.887,23.683a.661.661,0,0,1-.592.405Zm-12.12-14.5,8.056,4.177a.657.657,0,0,1,.29.3l3.731,7.759,8.707-20.852Z" transform="translate(-9759.61 2465.222)" fill="#ccc"/>
  </g>
  <g id="Group_189" data-name="Group 189" transform="translate(9.312 0)">
    <path id="Path_81" data-name="Path 81" d="M9785.351-2449.3a.661.661,0,0,1-.46-.187.659.659,0,0,1-.011-.932l14.256-14.6a.659.659,0,0,1,.932-.012.66.66,0,0,1,.012.932l-14.256,14.6A.657.657,0,0,1,9785.351-2449.3Z" transform="translate(-9784.692 2465.223)" fill="#ccc"/>
  </g>
</svg>
