<svg xmlns="http://www.w3.org/2000/svg" width="25.24" height="25.123" viewBox="0 0 25.24 25.123">
  <g id="subscription" transform="translate(-640.958 -1009.244)">
    <path id="Path_124" data-name="Path 124" d="M651.729,1034.367a.613.613,0,0,1-.429-.174l-10.156-9.862a.615.615,0,0,1-.007-.875l13.208-13.267a.615.615,0,0,1,.373-.178l7.4-.763a.615.615,0,0,1,.5.176l3.4,3.394a.615.615,0,0,1,.18.471l-.411,7.114a.615.615,0,0,1-.18.4l-13.443,13.385A.613.613,0,0,1,651.729,1034.367Zm-9.28-10.485,9.275,9.007,12.848-12.792.381-6.6-3-2.993-6.888.711Z" transform="translate(0)" fill="#fff"/>
    <path id="Path_125" data-name="Path 125" d="M659.82,1038.1h0a.615.615,0,0,1-.438-.186l-3.933-4.047a.615.615,0,0,1,.008-.865l7.749-7.69a.615.615,0,0,1,.86-.006l3.992,3.845a.615.615,0,0,1,.01.876l-7.808,7.892A.615.615,0,0,1,659.82,1038.1Zm-3.068-4.654,3.072,3.161,6.928-7-3.11-3Z" transform="translate(-8.443 -9.372)" fill="#fff"/>
    <path id="Ellipse_60" data-name="Ellipse 60" d="M.79-1.5A2.29,2.29,0,1,1-1.5.79,2.293,2.293,0,0,1,.79-1.5Zm0,3.35A1.06,1.06,0,1,0-.27.79,1.061,1.061,0,0,0,.79,1.85Z" transform="translate(660.155 1013.838)" fill="#fff"/>
  </g>
</svg>
