<svg xmlns="http://www.w3.org/2000/svg" xmlns:xlink="http://www.w3.org/1999/xlink" width="20.388" height="22.401" viewBox="0 0 20.388 22.401">
  <defs>
    <clipPath id="clip-path">
      <rect id="Rectangle_1636" data-name="Rectangle 1636" width="20.388" height="22.401" fill="none"/>
    </clipPath>
  </defs>
  <g id="terms" clip-path="url(#clip-path)">
    <path id="Path_153" data-name="Path 153" d="M115.431,68.1h-9.988a.552.552,0,1,0,0,1.1h9.988a.552.552,0,0,0,0-1.1" transform="translate(-98.636 -64.04)" fill="#fff"/>
    <path id="Path_154" data-name="Path 154" d="M115.431,106.306h-9.988a.552.552,0,0,0,0,1.1h9.988a.552.552,0,0,0,0-1.1" transform="translate(-98.636 -99.966)" fill="#fff"/>
    <path id="Path_155" data-name="Path 155" d="M115.431,144.51h-9.988a.552.552,0,1,0,0,1.1h9.988a.552.552,0,0,0,0-1.1" transform="translate(-98.636 -135.892)" fill="#fff"/>
    <path id="Path_156" data-name="Path 156" d="M115.431,182.715h-9.988a.552.552,0,1,0,0,1.1h9.988a.552.552,0,0,0,0-1.1" transform="translate(-98.636 -171.819)" fill="#fff"/>
    <path id="Path_157" data-name="Path 157" d="M115.431,220.919h-9.988a.552.552,0,0,0,0,1.1h9.988a.552.552,0,0,0,0-1.1" transform="translate(-98.636 -207.745)" fill="#fff"/>
    <path id="Path_158" data-name="Path 158" d="M115.431,259.124h-9.988a.552.552,0,1,0,0,1.1h9.988a.552.552,0,0,0,0-1.1" transform="translate(-98.636 -243.671)" fill="#fff"/>
    <path id="Path_159" data-name="Path 159" d="M20.227,2.9,17.487.164A.549.549,0,0,0,17.094,0H3.766a.553.553,0,0,0-.552.552V1.783H.552A.553.553,0,0,0,0,2.335V21.849a.553.553,0,0,0,.552.552h16.07a.553.553,0,0,0,.552-.552V20.618h2.662a.553.553,0,0,0,.552-.552V3.295a.548.548,0,0,0-.162-.39M3.766,20.618h12.3V21.3H1.1V2.887H3.214V20.066a.553.553,0,0,0,.552.552m12.856-1.1H4.318V1.1H16.865l2.419,2.419V19.514Z" fill="#fff"/>
  </g>
</svg>
