<svg xmlns="http://www.w3.org/2000/svg" width="18.654" height="21.56" viewBox="0 0 18.654 21.56">
  <path id="tiktok" d="M416.159,13.184V9.049a7.9,7.9,0,0,0-6.5,2.954c-2.363,3.249-.591,7.088-.591,7.088a7.045,7.045,0,0,0,6.2,3.839,6.888,6.888,0,0,0,7.088-6.5V8.774a9.064,9.064,0,0,0,4.726,1.456v-3.7s-5.021-.142-5.021-5.163h-3.83V16.137a3.217,3.217,0,0,1-1.19,2.363,2.889,2.889,0,0,1-4.135-.591,3.487,3.487,0,0,1,.3-4.135c.886-.886,2.954-.591,2.954-.591" transform="translate(-408.433 -1.37)" fill="#fff"/>
</svg>
