<svg xmlns="http://www.w3.org/2000/svg" width="19.622" height="12.633" viewBox="0 0 19.622 12.633">
  <g id="view" transform="translate(0 0)">
    <path id="Path_130" data-name="Path 130" d="M319.157,6.774c1.942,0,4.164.994,6.6,2.955a25.329,25.329,0,0,1,3.045,2.9.639.639,0,0,1,.012.82,23.453,23.453,0,0,1-2.975,2.953,16.329,16.329,0,0,1-3.062,2.048,7.33,7.33,0,0,1-7.261,0,16.332,16.332,0,0,1-3.062-2.048,23.454,23.454,0,0,1-2.976-2.953.639.639,0,0,1,.013-.82,25.422,25.422,0,0,1,3.053-2.895C314.992,7.768,317.216,6.774,319.157,6.774Zm8.311,6.279a25.232,25.232,0,0,0-2.524-2.34c-1.513-1.213-3.745-2.66-5.787-2.66s-4.278,1.447-5.794,2.66a25.337,25.337,0,0,0-2.53,2.34c1.143,1.279,4.832,5.075,8.317,5.075,2.15,0,4.383-1.477,5.877-2.716A23.266,23.266,0,0,0,327.468,13.053Z" transform="translate(-309.339 -6.774)" fill="#bcbcbc"/>
    <path id="Ellipse_69" data-name="Ellipse 69" d="M2.767-1A3.767,3.767,0,1,1-1,2.767,3.771,3.771,0,0,1,2.767-1Zm0,6.255A2.488,2.488,0,1,0,.279,2.767,2.491,2.491,0,0,0,2.767,5.255Z" transform="translate(7.045 3.613)" fill="#bcbcbc"/>
  </g>
</svg>
