<svg xmlns="http://www.w3.org/2000/svg" width="24.255" height="18.529" viewBox="0 0 24.255 18.529">
  <g id="wallet" transform="translate(-139.128 -1344.991)">
    <path id="Rectangle_1576" data-name="Rectangle 1576" d="M2.113-1.639H18.864a3.756,3.756,0,0,1,3.752,3.752V13.138a3.756,3.756,0,0,1-3.752,3.752H2.113a3.756,3.756,0,0,1-3.752-3.752V2.113A3.756,3.756,0,0,1,2.113-1.639ZM18.864,15.539a2.4,2.4,0,0,0,2.4-2.4V2.113a2.4,2.4,0,0,0-2.4-2.4H2.113a2.4,2.4,0,0,0-2.4,2.4V13.138a2.4,2.4,0,0,0,2.4,2.4Z" transform="translate(140.767 1346.63)" fill="#fff"/>
    <path id="Path_124" data-name="Path 124" d="M139.848,1363.094a.684.684,0,0,1-.126-.012.676.676,0,0,1-.539-.789,3.226,3.226,0,0,1,1.5-2.331,2.587,2.587,0,0,1,1.21-.359H160.7a2.474,2.474,0,0,1,1.167.305,3.123,3.123,0,0,1,1.51,2.237.676.676,0,0,1-1.321.283,1.851,1.851,0,0,0-.833-1.332,1.149,1.149,0,0,0-.484-.143H141.9a1.322,1.322,0,0,0-.589.206,1.982,1.982,0,0,0-.8,1.384A.676.676,0,0,1,139.848,1363.094Z" transform="translate(-0.026 -8.589)" fill="#fff"/>
    <path id="Path_125" data-name="Path 125" d="M139.848,1356.038a.676.676,0,0,1-.67-.769,3.027,3.027,0,0,1,1.474-2.374,2.7,2.7,0,0,1,1.239-.348H160.7a2.471,2.471,0,0,1,1.167.306,3.122,3.122,0,0,1,1.51,2.237.676.676,0,1,1-1.321.283,1.9,1.9,0,0,0-.784-1.3,1.173,1.173,0,0,0-.539-.17l-.022,0,0,0H141.894a1.4,1.4,0,0,0-.624.2,1.777,1.777,0,0,0-.754,1.358A.676.676,0,0,1,139.848,1356.038Z" transform="translate(-0.026 -4.441)" fill="#fff"/>
    <path id="Path_126" data-name="Path 126" d="M151.3,1371c-1.582,0-3.037-1.561-3.737-2.31-.089-.1-.166-.178-.22-.232a1.226,1.226,0,0,0-.764-.251h-6.731a.676.676,0,1,1,0-1.351h6.682a2.549,2.549,0,0,1,1.768.646c.07.07.155.161.253.266.525.563,1.754,1.881,2.748,1.881a3.4,3.4,0,0,0,1.809-.9,9.8,9.8,0,0,0,1.039-.974,2.611,2.611,0,0,1,1.781-.914h6.786a.676.676,0,1,1,0,1.351h-6.786a1.313,1.313,0,0,0-.759.447l-.009.01a11.053,11.053,0,0,1-1.2,1.132A4.491,4.491,0,0,1,151.3,1371Z" transform="translate(-0.026 -12.855)" fill="#fff"/>
  </g>
</svg>
